<?xml version="1.0" encoding="utf-8"?>
<!-- Generator: Adobe Illustrator 27.3.1, SVG Export Plug-In . SVG Version: 6.00 Build 0)  -->
<svg version="1.1" id="Layer_1" xmlns="http://www.w3.org/2000/svg" xmlns:xlink="http://www.w3.org/1999/xlink" x="0px" y="0px"
	 viewBox="0 0 152.8 55.2" style="enable-background:new 0 0 152.8 55.2;" xml:space="preserve">
<style type="text/css">
	.st0{fill:#FF0000;}
</style>
<g>
	<g>
		<path d="M85.5,31.7c0,0.6,0.1,1.1,0.4,1.4c0.3,0.3,0.6,0.5,1.1,0.5h4.9v4.9h-5.5c-1.9,0-3.3-0.6-4.4-1.7c-1-1.1-1.5-2.8-1.5-4.9
			V2.9h5V31.7z"/>
	</g>
</g>
<polygon class="st0" points="53.3,2.4 48.1,2.4 47.9,2.4 47.9,2.5 37.3,30.6 31.4,13.5 31.3,13.3 31.1,13.3 26,13.3 25.6,13.3 
	25.7,13.7 35.2,38.5 35.3,38.6 35.4,38.6 39.2,38.6 39.3,38.6 39.4,38.5 53.5,2.7 53.7,2.4 "/>
<polygon points="108.3,13.4 102.3,30.8 96.2,13.4 90.7,13.4 100.3,38.4 100.3,38.6 104.3,38.6 113.8,13.6 113.9,13.4 "/>
<path d="M63.5,12.1c-7.2,0-13.1,5.9-13.1,13.1c0,7.2,5.9,13.1,13.1,13.1c7.2,0,13.1-5.9,13.1-13.1C76.6,17.9,70.8,12.1,63.5,12.1z
	 M63.5,33.3c-4.5,0-8.2-3.7-8.2-8.2c0-4.5,3.7-8.2,8.2-8.2c4.5,0,8.2,3.7,8.2,8.2C71.7,29.7,68,33.3,63.5,33.3z"/>
<path class="st0" d="M146.5,26.4l-2-2.2c-0.2-0.2-0.5-0.2-0.7,0l-2.3,1.9c-0.2,0.1-0.2,0.3-0.1,0.5c0.1,0.2,0.2,0.3,0.4,0.3l0.2,0
	c0.1,0,0.2,0,0.2,0c0,0.1,0,0.2,0,0.3c-0.2,1.8-0.7,3.2-1.4,4.5c-1.4,2.4-3.5,4-6.6,4.7c-1.2,0.3-2.1,0.4-3.1,0.2
	c-2.2-0.5-3.8-1.6-5.1-3.6c-1-1.6-1.7-3.6-2-5.9c0-0.1,0-0.3-0.1-0.4c3.3,0.7,6.4,0.8,9.4,0.3c2.4-0.4,4.2-1.2,5.6-2.3
	c1.4-1.1,3.3-3,3.2-5.9c-0.1-1.6-0.5-2.7-1.4-3.6c-0.8-0.9-1.8-1.5-2.9-2c-2.1-0.9-4.3-1.2-6.9-1c-2.4,0.2-4.5,0.9-6.3,2.2
	c-2.7,1.9-4.5,4.5-5.3,8c0,0.1,0,0.2-0.1,0.3c-2.3-2.7-2.9-5.8-1.8-9.3c0.1-0.2,0-0.5-0.2-0.6c-0.2-0.1-0.5-0.1-0.6,0.1l0,0
	c0,0-0.1,0.1-0.1,0.2c-0.9,1.9-1.2,3.9-1,5.9c0.4,2.5,1.5,4.6,3.5,6.3c0,0.2,0,0.4,0,0.6c0,0.2,0,0.3,0,0.5c0.1,2,0.4,3.8,1.1,5.4
	c1.2,2.6,3,4.5,5.3,5.6c0.9,0.4,1.9,0.8,2.9,1l0.1,0c1.2,0.4,2.5,0.6,3.8,0.6c0.9,0,1.9-0.1,2.9-0.3c3.9-0.8,6.8-2.9,8.7-6.2
	c0.8-1.5,1.4-3.1,1.8-5.1c0.1,0,0.2,0,0.3,0c0.1,0,0.1,0,0.2,0c0.2,0,0.4-0.1,0.5-0.3C146.7,26.7,146.7,26.5,146.5,26.4z
	 M138.1,18.7c-0.2,1.8-1.1,3.2-3,4.4c-1.5,0.9-3.2,1.5-5.3,1.8c-0.5,0.1-0.9,0.1-1.4,0.1c-0.2,0-0.4,0-0.6,0c-1.3,0-2.7-0.2-4-0.5
	c0-1.6,0.1-3.6,0.8-5.5c0.9-2.5,2.5-4.1,4.7-5c2.2-0.9,4.1-0.9,6-0.2C137.3,14.7,138.4,16.5,138.1,18.7z"/>
<g>
	<path d="M146,13.1v0.5h-1.1v3.7h-0.7v-3.7h-1.1v-0.5H146z"/>
	<path d="M151.7,13.1v4.2H151v-2.9l-1.3,2.9h-0.5l-1.3-2.9v2.9h-0.7v-4.2h0.8l1.5,3.3l1.5-3.3H151.7z"/>
</g>
<path d="M23.4,19.2c-1-1.8-2.4-3.2-4.2-4.2c-1.8-1-3.9-1.5-6.2-1.5c-2.4,0-4.5,0.5-6.4,1.6c-1.8,1-3.3,2.5-4.3,4.4
	c-1,1.9-1.5,4.1-1.5,6.6s0.5,4.7,1.5,6.6c1,1.9,2.4,3.4,4.2,4.4c1.8,1,3.9,1.6,6.2,1.6c2.9,0,5.3-0.7,7.2-2.2c1.9-1.4,3.3-3.3,4-5.5
	l0.1-0.4h-5.9l-0.1,0.2c-1.1,2.1-2.8,3.2-5.4,3.2c-1.8,0-3.3-0.6-4.4-1.7c-1.1-1.1-1.8-2.5-1.9-4.3h18.2l0-0.2
	c0.1-0.7,0.2-1.5,0.2-2.4C24.9,23,24.4,20.9,23.4,19.2z M6.5,24c0.2-1.8,0.9-3.2,2-4.2c1.2-1.1,2.6-1.7,4.3-1.7
	c1.8,0,3.3,0.6,4.5,1.7c1.1,1.1,1.8,2.5,1.9,4.2H6.5z"/>
<g>
	<path d="M13.6,51.4c-0.3,0.4-0.6,0.8-1.1,1.1s-1.1,0.4-1.8,0.4c-0.6,0-1.2-0.1-1.7-0.3c-0.5-0.2-0.9-0.5-1.2-0.9
		c-0.3-0.4-0.4-0.8-0.4-1.4h1.4c0,0.4,0.2,0.8,0.5,1.1c0.3,0.3,0.8,0.4,1.4,0.4c0.6,0,1.1-0.2,1.5-0.5c0.4-0.3,0.6-0.7,0.6-1.2
		c0-0.4-0.1-0.7-0.3-0.9c-0.2-0.2-0.5-0.4-0.8-0.5s-0.7-0.2-1.3-0.3c-0.7-0.2-1.2-0.3-1.6-0.5c-0.4-0.2-0.7-0.4-1-0.8
		c-0.3-0.4-0.4-0.9-0.4-1.5c0-0.5,0.1-1,0.4-1.4c0.3-0.4,0.7-0.7,1.2-1c0.5-0.2,1.1-0.3,1.8-0.3c0.9,0,1.6,0.2,2.2,0.7
		c0.6,0.4,0.9,1,1,1.8h-1.4c0-0.4-0.2-0.7-0.6-1c-0.3-0.3-0.8-0.4-1.3-0.4c-0.6,0-1,0.1-1.4,0.4c-0.4,0.3-0.5,0.7-0.5,1.2
		c0,0.4,0.1,0.7,0.3,0.9s0.5,0.4,0.8,0.5c0.3,0.1,0.7,0.2,1.3,0.4c0.6,0.2,1.2,0.3,1.6,0.5c0.4,0.2,0.7,0.4,1,0.8
		c0.3,0.3,0.4,0.8,0.4,1.4C14,50.5,13.9,51,13.6,51.4z"/>
	<path d="M19.6,43v9.8h-1.3V43H19.6z"/>
	<path d="M25.5,51.8h3.5v1h-4.8V43h1.3V51.8z"/>
	<path d="M34,43v9.8h-1.3V43H34z"/>
	<path d="M45.8,43.6c0.8,0.5,1.4,1.2,1.8,2.1H46c-0.3-0.5-0.7-0.9-1.2-1.2c-0.5-0.3-1.1-0.4-1.8-0.4c-0.7,0-1.3,0.2-1.9,0.5
		c-0.6,0.3-1,0.8-1.3,1.3c-0.3,0.6-0.5,1.3-0.5,2c0,0.8,0.2,1.4,0.5,2c0.3,0.6,0.8,1,1.3,1.4c0.6,0.3,1.2,0.5,1.9,0.5
		c0.7,0,1.2-0.1,1.8-0.4s0.9-0.7,1.2-1.2h1.6c-0.4,0.9-1,1.6-1.8,2.1c-0.8,0.5-1.7,0.7-2.8,0.7c-0.9,0-1.8-0.2-2.6-0.6
		c-0.8-0.4-1.4-1-1.8-1.8c-0.4-0.8-0.7-1.6-0.7-2.6c0-1,0.2-1.8,0.7-2.6c0.4-0.8,1.1-1.3,1.8-1.8s1.6-0.6,2.6-0.6
		C44.1,42.9,45,43.1,45.8,43.6z"/>
	<path d="M59.1,43.5c0.8,0.4,1.4,1,1.8,1.8c0.4,0.8,0.7,1.6,0.7,2.6c0,1-0.2,1.8-0.7,2.6c-0.4,0.8-1.1,1.4-1.8,1.8
		c-0.8,0.4-1.6,0.6-2.5,0.6c-0.9,0-1.8-0.2-2.6-0.6c-0.8-0.4-1.4-1-1.8-1.8c-0.4-0.8-0.7-1.6-0.7-2.6c0-1,0.2-1.8,0.7-2.6
		c0.4-0.8,1.1-1.3,1.8-1.8s1.6-0.6,2.6-0.6C57.5,42.9,58.3,43.1,59.1,43.5z M54.7,44.5c-0.6,0.3-1,0.8-1.3,1.3
		c-0.3,0.6-0.5,1.3-0.5,2c0,0.8,0.2,1.4,0.5,2c0.3,0.6,0.8,1,1.3,1.4c0.6,0.3,1.2,0.5,1.9,0.5c0.7,0,1.3-0.2,1.9-0.5
		c0.6-0.3,1-0.8,1.3-1.4c0.3-0.6,0.5-1.3,0.5-2c0-0.8-0.2-1.4-0.5-2c-0.3-0.6-0.8-1-1.3-1.3c-0.6-0.3-1.2-0.5-1.9-0.5
		C55.9,44,55.2,44.2,54.7,44.5z"/>
	<path d="M73.5,52.8h-1.3L66.9,45v7.8h-1.3V43h1.3l5.2,7.8V43h1.3V52.8z"/>
	<path d="M85.3,43l3.1,8.4l3.2-8.4H93l-3.8,9.8h-1.4L83.9,43H85.3z"/>
	<path d="M102.9,50.6h-4.4l-0.8,2.1h-1.3l3.6-9.8h1.4l3.6,9.8h-1.3L102.9,50.6z M102.5,49.6l-1.8-5.1l-1.8,5.1H102.5z"/>
	<path d="M110.4,51.8h3.5v1h-4.8V43h1.3V51.8z"/>
	<path d="M118.9,51.8h3.5v1h-4.8V43h1.3V51.8z"/>
	<path d="M127.4,44v3.3h3.5v1h-3.5v3.4h4v1h-5.3V43h5.3v1H127.4z"/>
	<path d="M142.6,43l-3.2,6.1v3.7h-1.3v-3.7l-3.2-6.1h1.4l2.4,4.9l2.4-4.9H142.6z"/>
</g>
</svg>
