<?xml version="1.0" encoding="UTF-8"?>
<svg id="Layer_1" xmlns="http://www.w3.org/2000/svg" version="1.1" viewBox="0 0 845.5 278.2">
  <!-- Generator: Adobe Illustrator 29.5.1, SVG Export Plug-In . SVG Version: 2.1.0 Build 141)  -->
  <defs>
    <style>
      .st0 {
        fill: #110505;
        stroke: #070202;
        stroke-miterlimit: 10;
      }

      .st1 {
        fill: red;
      }
    </style>
  </defs>
  <path class="st0" d="M139.3,69.7c-8.1-17.7-34.7-22.8-59.3-11.5-2.6,1.2-5.1,2.5-7.4,4l-11.9,3.8,1.9,3.8c-.8.8-1.6,1.5-2.4,2.3.9-.6,1.8-1.2,2.7-1.8l3.2,6.4s11.1-13.9,20.9-10.3h0c.2.1.5.2.7.3,12.9,6.3,13.5,27.8,1.3,48-3,5.1-6.6,9.6-10.4,13.4,9.6.8,20.4-1,30.8-5.8,24.6-11.4,38-34.9,29.9-52.6h0Z"/>
  <path class="st0" d="M159.9,142.9c-8.5,21-27.2,38.4-51.9,45.5-41,11.8-83-9.1-93.9-46.8s13.5-77.9,54.4-89.7c21.8-6.3,44-2.9,61.6,6.9-11.9-3.3-25.1-3.9-37-.5-30.2,8.7-41.7,37.7-33.2,67.2,8.5,29.5,39.9,46.3,70.1,37.6,12.4-3.5,22.7-10.8,29.9-20.2h0Z"/>
  <path class="st0" d="M497.6,153c0,3.4.6,6.2,2.3,7.9,1.7,1.7,3.4,2.8,6.2,2.8h27.8v27.8h-31.2c-10.8,0-18.7-3.4-25-9.6-5.7-6.2-8.5-15.9-8.5-27.8V13.3h28.4v139.7Z"/>
  <polygon class="st1" points="682.5 13.5 653 13.5 651.9 13.5 651.9 14.1 591.7 146.8 558.3 49.8 557.7 48.6 556.6 48.6 527.7 48.6 525.4 48.6 526 50.9 579.8 191.5 580.4 192.1 581 192.1 602.5 192.1 603.1 192.1 603.7 191.5 683.6 15.3 684.7 13.5 682.5 13.5"/>
  <polygon class="st0" points="259.4 49.2 225.3 147.9 190.8 49.2 159.6 49.2 214 191 214 192.1 236.7 192.1 290.6 50.3 291.1 49.2 259.4 49.2"/>
  <path class="st0" d="M372.8,41.8c-40.8,0-74.3,33.5-74.3,74.3s33.5,74.3,74.3,74.3,74.3-33.5,74.3-74.3-32.9-74.3-74.3-74.3ZM372.8,162.1c-25.5,0-46.5-21-46.5-46.5s21-46.5,46.5-46.5,46.5,21,46.5,46.5-21,46.5-46.5,46.5Z"/>
  <path class="st0" d="M796.1,82.1c-5.7-10.2-13.6-18.1-23.8-23.8s-22.1-8.5-35.2-8.5-25.5,2.8-36.3,9.1c-10.2,5.7-18.7,14.2-24.4,25s-8.5,23.2-8.5,37.4,2.8,26.7,8.5,37.4c5.7,10.8,13.6,19.3,23.8,25s22.1,9.1,35.2,9.1c16.4,0,30.1-4,40.8-12.5,10.8-7.9,18.7-18.7,22.7-31.2l.6-2.3h-33.5l-.6,1.1c-6.2,11.9-15.9,18.1-30.6,18.1-10.2,0-18.7-3.4-25-9.6-6.2-6.2-10.2-14.2-10.8-24.4h103.2v-1.1c.6-4,1.1-8.5,1.1-13.6,1.3-13.6-1.5-25.6-7.2-35.2h0ZM700.3,109.3c1.1-10.2,5.1-18.1,11.3-23.8,6.8-6.2,14.7-9.6,24.4-9.6,10.2,0,18.7,3.4,25.5,9.6,6.2,6.2,10.2,14.2,10.8,23.8h-72Z"/>
  <g>
    <path d="M84.3,258.3c-1.6,2.1-3.2,4.3-5.9,5.9-2.7,1.6-5.9,2.1-9.6,2.1-3.2,0-6.4-.5-9-1.6-2.7-1.1-4.8-2.7-6.4-4.8-1.6-2.1-2.1-4.3-2.1-7.5h7.5c0,2.1,1.1,4.3,2.7,5.9,1.6,1.6,4.3,2.1,7.5,2.1s5.9-1.1,8-2.7,3.2-3.7,3.2-6.4c0-2.1-.5-3.7-1.6-4.8s-2.7-2.1-4.3-2.7c-1.6-.5-3.7-1.1-6.9-1.6-3.7-1.1-6.4-1.6-8.5-2.7-2.1-1.1-3.7-2.1-5.3-4.3-1.6-2.1-2.1-4.8-2.1-8,0-2.7.5-5.3,2.1-7.5s3.7-3.7,6.4-5.3c2.7-1.1,5.9-1.6,9.6-1.6,4.8,0,8.5,1.1,11.7,3.7,3.2,2.1,4.8,5.3,5.3,9.6h-7.6c0-2.1-1.1-3.7-3.2-5.3-1.6-1.6-4.3-2.1-6.9-2.1-3.2,0-5.3.5-7.5,2.1-2.1,1.6-2.7,3.7-2.7,6.4,0,2.1.5,3.7,1.6,4.8s2.7,2.1,4.3,2.7c1.6.5,3.7,1.1,6.9,2.1,3.2,1.1,6.4,1.6,8.5,2.7,2.1,1.1,3.7,2.1,5.3,4.3,1.6,1.6,2.1,4.3,2.1,7.5-.9,2.2-1.5,4.9-3.1,7Z"/>
    <path d="M116.3,213.6v52.2h-6.9v-52.2h6.9Z"/>
    <path d="M147.7,260.5h18.6v5.3h-25.6v-52.2h6.9v46.9h.1Z"/>
    <path d="M192.9,213.6v52.2h-6.9v-52.2h6.9Z"/>
    <path d="M255.7,216.8c4.3,2.7,7.5,6.4,9.6,11.2h-8.5c-1.6-2.7-3.7-4.8-6.4-6.4-2.7-1.6-5.9-2.1-9.6-2.1s-6.9,1.1-10.1,2.7c-3.2,1.6-5.3,4.3-6.9,6.9-1.6,3.2-2.7,6.9-2.7,10.6,0,4.3,1.1,7.5,2.7,10.6,1.6,3.2,4.3,5.3,6.9,7.5,3.2,1.6,6.4,2.7,10.1,2.7s6.4-.5,9.6-2.1c3.2-1.6,4.8-3.7,6.4-6.4h8.5c-2.1,4.8-5.3,8.5-9.6,11.2-4.3,2.7-9,3.7-14.9,3.7-4.8,0-9.6-1.1-13.8-3.2-4.3-2.1-7.5-5.3-9.6-9.6-2.1-4.3-3.7-8.5-3.7-13.8s1.1-9.6,3.7-13.8c2.1-4.3,5.9-6.9,9.6-9.6,3.7-2.7,8.5-3.2,13.8-3.2,5.9-.6,10.7.5,14.9,3.1h0Z"/>
    <path d="M326.5,216.3c4.3,2.1,7.5,5.3,9.6,9.6s3.7,8.5,3.7,13.8-1.1,9.6-3.7,13.8c-2.1,4.3-5.9,7.5-9.6,9.6-4.3,2.1-8.5,3.2-13.3,3.2s-9.6-1.1-13.8-3.2c-4.3-2.1-7.5-5.3-9.6-9.6-2.1-4.3-3.7-8.5-3.7-13.8s1.1-9.6,3.7-13.8c2.1-4.3,5.9-6.9,9.6-9.6,3.7-2.7,8.5-3.2,13.8-3.2,4.8,0,9.1,1.1,13.3,3.2h0ZM303.1,221.6c-3.2,1.6-5.3,4.3-6.9,6.9-1.6,3.2-2.7,6.9-2.7,10.6,0,4.3,1.1,7.5,2.7,10.6,1.6,3.2,4.3,5.3,6.9,7.5,3.2,1.6,6.4,2.7,10.1,2.7s6.9-1.1,10.1-2.7,5.3-4.3,6.9-7.5,2.7-6.9,2.7-10.6c0-4.3-1.1-7.5-2.7-10.6s-4.3-5.3-6.9-6.9c-3.2-1.6-6.4-2.7-10.1-2.7s-7.4,1.1-10.1,2.7Z"/>
    <path d="M403.2,265.8h-6.9l-28.2-41.5v41.5h-6.9v-52.2h6.9l27.7,41.5v-41.5h6.9v52.2h.5Z"/>
    <path d="M466,213.6l16.5,44.7,17-44.7h7.5l-20.2,52.2h-7.5l-20.8-52.2h7.5Z"/>
    <path d="M559.7,254.1h-23.4l-4.3,11.2h-6.9l19.2-52.2h7.5l19.2,52.2h-6.9l-4.4-11.2h0ZM557.6,248.8l-9.6-27.1-9.6,27.1h19.2,0Z"/>
    <path d="M599.6,260.5h18.6v5.3h-25.6v-52.2h6.9l.1,46.9h0Z"/>
    <path d="M644.9,260.5h18.6v5.3h-25.6v-52.2h6.9l.1,46.9h0Z"/>
    <path d="M690.1,218.9v17.6h18.6v5.3h-18.6v18.1h21.3v5.3h-28.2v-51.6h28.2v5.3h-21.3Z"/>
    <path d="M771,213.6l-17,32.5v19.7h-6.9v-19.7l-17-32.5h7.5l12.8,26.1,12.8-26.1h7.8Z"/>
  </g>
  <path class="st0" d="M809.5,58.2c-12.7,0-23.1-10.4-23.1-23.1s10.4-23.1,23.1-23.1,23.1,10.4,23.1,23.1-10.4,23.1-23.1,23.1ZM809.5,17c-10,0-18.1,8.1-18.1,18.1s8.1,18.1,18.1,18.1,18.1-8.1,18.1-18.1-8.1-18.1-18.1-18.1Z"/>
  <path class="st0" d="M813.27,46.11l-5.01-8.75h-.64v8.75h-5.47v-22.52h8.84c1.73,0,3.28.36,4.47,1,1.28.64,2.19,1.46,2.83,2.55.64,1,.91,2.19.91,3.37,0,1.28-.36,2.55-1.19,3.83-.82,1.28-2.1,2.1-3.83,2.64l5.47,9.12s-6.38,0-6.38,0ZM807.62,33.16h3.37c.82,0,1.46-.27,2.01-.73.46-.46.73-1.19.73-1.91,0-.82-.27-1.46-.73-1.91-.46-.55-1.19-.73-1.91-.73h-3.37v5.29h-.09Z"/>
  <polygon class="st1" points="112.6 31.8 121.5 45.9 144.6 51.5 117.7 10.6 75.4 34.7 98.5 40.3 112.6 31.8"/>
</svg>